<?xml version="1.0" encoding="UTF-8"?>
<svg xmlns="http://www.w3.org/2000/svg" xmlns:xlink="http://www.w3.org/1999/xlink" width="2790pt" height="413.01pt" viewBox="0 0 2790 413.01" version="1.1">
<g id="surface1">
<path style=" stroke:none;fill-rule:nonzero;fill:rgb(3.898621%,52.89917%,30.198669%);fill-opacity:1;" d="M 98.03125 338.828125 L 120.132813 316.726563 C 140.1875 332.441406 164.644531 342.785156 191.371094 345.5625 L 191.371094 221.640625 L 67.441406 221.640625 C 70.242188 248.550781 80.707031 273.164063 96.605469 293.296875 L 74.511719 315.390625 C 53.109375 289.457031 39.214844 257.117188 36.210938 221.640625 L 0 221.640625 L 0 413.011719 L 191.371094 413.011719 L 191.371094 376.800781 C 156.078125 373.8125 123.898438 360.039063 98.03125 338.828125 Z M 220.429688 1.207031 L 220.429688 37.417969 C 255.90625 40.421875 288.246094 54.316406 314.179688 75.71875 L 292.09375 97.804688 C 271.957031 81.90625 247.34375 71.441406 220.429688 68.644531 L 220.429688 192.578125 L 344.363281 192.578125 C 341.585938 165.847656 331.238281 141.390625 315.523438 121.335938 L 337.617188 99.238281 C 358.832031 125.101563 372.605469 157.285156 375.59375 192.578125 L 411.800781 192.578125 L 411.800781 1.207031 Z M 117.621094 46.011719 C 117.621094 37.238281 110.441406 30.125 101.585938 30.125 C 92.730469 30.125 85.554688 37.238281 85.554688 46.011719 C 85.554688 54.777344 92.730469 61.890625 101.585938 61.890625 C 110.441406 61.890625 117.621094 54.777344 117.621094 46.011719 Z M 191.371094 1.207031 L 191.371094 192.578125 L 67.402344 192.578125 C 68.101563 159.691406 79.535156 124.21875 101.585938 102.640625 C 123.347656 119.386719 137.429688 141.1875 142.972656 168.757813 C 148.058594 168.757813 167.738281 168.757813 174.742188 168.757813 C 166.777344 130.21875 145.257813 105.609375 119.492188 88.816406 C 150.3125 64.3125 156.300781 38.625 156.300781 25.03125 L 143.992188 25.03125 C 142.121094 37.808594 135.238281 57.246094 101.585938 76.972656 C 65.925781 56.269531 60.46875 37.890625 59.179688 25.03125 L 46.875 25.03125 C 46.875 39.667969 53.027344 66.011719 83.765625 88.820313 C 52.066406 120.507813 39.035156 159.785156 36.191406 192.578125 L 0 192.578125 L 0 1.207031 Z M 411.800781 221.640625 L 411.800781 413.011719 L 298.808594 413.011719 L 276.699219 323.644531 C 285.628906 312.847656 294.910156 307.875 317.019531 304.425781 C 358.234375 297.996094 365.636719 262.304688 365.636719 262.304688 C 346.386719 266.929688 330.964844 262.320313 312.8125 257.894531 C 294.910156 253.527344 277.726563 253.917969 261.347656 259.632813 C 248.90625 263.972656 245.902344 268.03125 245.902344 268.03125 L 281.882813 413.011719 L 220.429688 413.011719 L 220.429688 221.640625 Z M 435.929688 12.207031 L 435.929688 17.171875 L 439.699219 17.171875 C 441.140625 17.171875 442.230469 16.230469 442.230469 14.691406 C 442.230469 13.054688 441.140625 12.207031 439.699219 12.207031 Z M 432.058594 8.984375 L 439.851563 8.984375 C 443.222656 8.984375 446.054688 10.820313 446.054688 14.640625 C 446.054688 17.46875 444.066406 19.257813 441.835938 19.804688 L 446.601563 25.113281 L 446.601563 25.855469 L 442.429688 25.855469 L 437.519531 20 L 435.929688 20 L 435.929688 25.855469 L 432.058594 25.855469 Z M 438.855469 31.863281 C 447.144531 31.863281 453.25 25.660156 453.25 17.417969 C 453.25 9.132813 447.144531 2.929688 438.855469 2.929688 C 430.617188 2.929688 424.5625 9.132813 424.5625 17.417969 C 424.5625 25.660156 430.617188 31.863281 438.855469 31.863281 Z M 438.855469 0.00390625 C 448.832031 0.00390625 456.277344 7.445313 456.277344 17.417969 C 456.277344 27.296875 448.832031 34.738281 438.855469 34.738281 C 428.980469 34.738281 421.535156 27.296875 421.535156 17.417969 C 421.535156 7.445313 428.980469 0.00390625 438.855469 0.00390625 Z M 2790 204.714844 C 2789.339844 263.34375 2753.351563 336.300781 2659.078125 336.300781 C 2569.46875 336.300781 2527.488281 268.007813 2527.488281 208.710938 C 2527.488281 149.410156 2572.140625 79.453125 2658.410156 79.453125 C 2715.039063 79.453125 2759.351563 108.105469 2777.679688 156.402344 L 2723.050781 156.402344 C 2704.050781 125.09375 2670.058594 123.761719 2658.410156 123.761719 C 2600.78125 123.761719 2573.128906 168.398438 2573.128906 207.039063 C 2573.128906 249.019531 2603.78125 291.992188 2660.421875 291.992188 C 2690.390625 291.992188 2719.039063 278.332031 2732.359375 247.683594 L 2629.429688 247.683594 L 2629.429688 204.714844 Z M 764.582031 204.714844 C 763.925781 263.34375 727.945313 336.300781 633.664063 336.300781 C 544.054688 336.300781 502.089844 268.007813 502.089844 208.710938 C 502.089844 149.410156 546.71875 79.453125 633.007813 79.453125 C 689.625 79.453125 733.933594 108.105469 752.261719 156.402344 L 697.628906 156.402344 C 678.644531 125.09375 644.65625 123.761719 633.007813 123.761719 C 575.367188 123.761719 547.726563 168.398438 547.726563 207.039063 C 547.726563 249.019531 578.363281 291.992188 635 291.992188 C 664.976563 291.992188 693.636719 278.332031 706.953125 247.683594 L 604.023438 247.683594 L 604.023438 204.714844 Z M 2447.78125 85.011719 L 2493.78125 85.019531 L 2493.730469 330.523438 L 2442.949219 330.507813 L 2341.398438 152.386719 L 2341.359375 330.488281 L 2295.769531 330.484375 L 2295.820313 84.980469 L 2346.398438 84.992188 L 2447.738281 264.835938 Z M 2206.609375 84.96875 L 2251.441406 84.972656 L 2251.390625 330.472656 L 2206.570313 330.464844 Z M 1139.449219 265.972656 C 1123.390625 282.339844 1103.980469 290.511719 1081.210938 290.503906 C 1058.441406 290.503906 1038.871094 282.488281 1022.5 266.445313 C 1006.121094 250.40625 997.925781 230.867188 997.9375 207.808594 C 997.9375 185.066406 1006.089844 165.558594 1022.390625 149.300781 C 1038.699219 133.027344 1058.640625 124.882813 1082.230469 124.886719 C 1105.171875 124.894531 1124.449219 133.203125 1140.101563 149.804688 C 1155.730469 166.417969 1163.550781 185.757813 1163.539063 207.835938 C 1163.539063 230.253906 1155.511719 249.644531 1139.449219 265.972656 Z M 1173.058594 115.644531 C 1148.5 90.886719 1118.101563 78.527344 1081.890625 78.511719 C 1046.019531 78.507813 1015.449219 91.125 990.207031 116.339844 C 964.972656 141.5625 952.347656 172.015625 952.347656 207.71875 C 952.335938 243.089844 965.019531 273.410156 990.417969 298.632813 C 1015.800781 323.871094 1046.128906 336.472656 1081.351563 336.476563 C 1116.898438 336.484375 1147.21875 323.898438 1172.289063 298.660156 C 1197.359375 273.449219 1209.910156 243.140625 1209.910156 207.769531 C 1209.929688 171.082031 1197.640625 140.367188 1173.058594 115.644531 Z M 2117.039063 84.949219 L 2162.628906 84.957031 L 2162.578125 330.460938 L 2117 330.445313 L 2117.011719 229.132813 L 2030.878906 229.113281 L 2030.871094 330.433594 L 1986.070313 330.421875 L 1986.101563 84.925781 L 2030.910156 84.929688 L 2030.890625 185.085938 L 2117.019531 185.101563 Z M 1302.351563 148.539063 C 1286.980469 165.078125 1279.269531 184.863281 1279.269531 207.925781 C 1279.269531 229.867188 1286.960938 249.363281 1302.328125 266.472656 C 1317.699219 283.574219 1337.101563 292.109375 1360.488281 292.113281 C 1371.449219 292.113281 1381.808594 290.203125 1391.539063 286.367188 C 1401.261719 282.535156 1409.988281 276.546875 1417.679688 268.398438 L 1421.859375 263.992188 L 1474.628906 264.003906 L 1471.660156 269.644531 C 1460.679688 290.558594 1445.261719 307.074219 1425.378906 319.167969 C 1405.5 331.273438 1384.160156 337.316406 1361.410156 337.316406 C 1326.550781 337.3125 1296.808594 324.90625 1272.171875 300.097656 C 1247.550781 275.300781 1235.238281 244.570313 1235.238281 207.882813 C 1235.25 171.390625 1247.570313 140.90625 1272.210938 116.453125 C 1296.851563 91.976563 1326.28125 79.734375 1360.480469 79.738281 C 1383.550781 79.746094 1405.078125 85.558594 1425.039063 97.191406 C 1445.019531 108.828125 1460.570313 125.117188 1471.691406 146.070313 L 1476.109375 154.429688 L 1423.828125 154.417969 L 1418.179688 148.296875 C 1410.820313 140.285156 1402.109375 134.199219 1392.050781 130.027344 C 1382 125.863281 1371.480469 123.773438 1360.53125 123.773438 C 1337.128906 123.765625 1317.738281 132.039063 1302.351563 148.539063 Z M 1780.820313 148.632813 C 1765.429688 165.175781 1757.738281 184.957031 1757.730469 208.019531 C 1757.730469 229.960938 1765.410156 249.457031 1780.800781 266.566406 C 1796.171875 283.660156 1815.550781 292.203125 1838.960938 292.207031 C 1849.929688 292.214844 1860.28125 290.296875 1870 286.464844 C 1879.730469 282.628906 1888.449219 276.640625 1896.140625 268.484375 L 1900.328125 264.085938 L 1953.078125 264.089844 L 1950.121094 269.734375 C 1939.148438 290.652344 1923.71875 307.164063 1903.828125 319.265625 C 1883.941406 331.367188 1862.609375 337.417969 1839.878906 337.410156 C 1805.011719 337.40625 1775.269531 325 1750.628906 300.183594 C 1726.011719 275.394531 1713.691406 244.65625 1713.691406 207.980469 C 1713.691406 171.480469 1726.03125 141.003906 1750.671875 116.539063 C 1775.320313 92.066406 1804.738281 79.824219 1838.949219 79.832031 C 1862.019531 79.839844 1883.558594 85.652344 1903.511719 97.285156 C 1923.488281 108.917969 1939.03125 125.210938 1950.160156 146.15625 L 1954.578125 154.523438 L 1902.289063 154.511719 L 1896.648438 148.390625 C 1889.28125 140.382813 1880.578125 134.292969 1870.519531 130.121094 C 1860.449219 125.957031 1849.96875 123.867188 1839 123.867188 C 1815.589844 123.859375 1796.199219 132.128906 1780.820313 148.632813 Z M 843.824219 128.742188 L 843.8125 185.640625 L 926.8125 185.652344 L 926.8125 229.691406 L 844.0625 229.675781 L 843.796875 286.183594 L 930.238281 286.195313 L 930.472656 330.222656 L 797.824219 330.195313 L 797.863281 84.691406 L 930.273438 84.71875 L 930.507813 128.757813 Z M 1573.5 222.011719 L 1599.269531 148.308594 L 1625.71875 222.023438 Z M 1616.191406 84.851563 L 1581.078125 84.84375 L 1479.070313 330.085938 L 1529.929688 330.332031 L 1556.46875 266.816406 L 1643.441406 266.84375 L 1670.210938 330.121094 L 1719.828125 330.371094 L 1616.191406 84.851563 "/>
</g>
</svg>
